# xmcd
#
# Track frame offsets: 
#        150
#        25213
#        55705
#        81398
#        103825
#        129028
#        155550
#        185988
#
# Disc length: 2662 seconds
#
# Revision: 5
# Processed by: cddbd v1.5.2PL0 Copyright (c) Steve Scherf et al.
# Submitted via: ExactAudioCopyFreeDBPlugin 1.0
#
DISCID=660a6408
DTITLE=A. R. Rahman - Rangeela
DYEAR=1998
DGENRE=Soundtrack
TTITLE0=Asha Bhosle and Aditya Narayan - Rangeela Re
TTITLE1=Hariharan and Swarnlatha - Hai Rama
TTITLE2=Udit Narayan - Kya Kare Kya Na Kare
TTITLE3=Suresh Wadkar and Kavita Krishnamurthy - Pyar Ye Jaane Kaisa
TTITLE4=Asha Bhosle - Tanha Tanha Yahan Pe Jeena
TTITLE5=Chitra and Udit Narayan - Yaaron Sun Lo Zara
TTITLE6=A.R. Rahman and Shweta Shetty - Mangta Hai Kya
TTITLE7=Instrumental - Spirit Of Rangeela
EXTD=YEAR: 1998 ID3G:   4
EXTT0=
EXTT1=
EXTT2=
EXTT3=
EXTT4=
EXTT5=
EXTT6=
EXTT7=
PLAYORDER=
